<?xml version="1.0" encoding="utf-8"?>
<!-- Generator: Adobe Illustrator 20.1.0, SVG Export Plug-In . SVG Version: 6.00 Build 0)  -->
<svg version="1.1" id="Layer_1" xmlns:sketch="http://www.bohemiancoding.com/sketch/ns"
	 xmlns="http://www.w3.org/2000/svg" xmlns:xlink="http://www.w3.org/1999/xlink" x="0px" y="0px" viewBox="0 0 69.4 88.4"
	 style="enable-background:new 0 0 69.4 88.4;" xml:space="preserve">
<style type="text/css">
	.st0{fill:#FFFFFF;}
</style>
<title>Shield-17</title>
<desc>Created with Sketch.</desc>
<g sketch:type="MSPage">
	<path sketch:type="MSShapeGroup" class="st0" d="M66.3,11.4c-4.4-0.1-10.7-0.7-17.7-3.5c-5.4-2.2-9.6-5-12.5-7.4
		c-0.8-0.7-2-0.7-2.8,0c-2.9,2.4-7.1,5.2-12.5,7.4c-7,2.8-13.4,3.5-17.7,3.5c-1.1,0-1.9,0.8-2.1,1.8c-1.4,9.3-4,37.7,14.8,60.2
		c5.5,6.6,11.7,11.3,17.1,14.5c1.1,0.7,2.6,0.7,3.7,0c5.4-3.2,11.5-7.9,17-14.5c18.8-22.5,16.2-50.9,14.8-60.1
		C68.3,12.2,67.4,11.5,66.3,11.4"/>
</g>
</svg>
