<?xml version="1.0" encoding="UTF-8"?>
<svg width="82px" height="104px" viewBox="0 0 82 104" version="1.1" xmlns="http://www.w3.org/2000/svg" xmlns:xlink="http://www.w3.org/1999/xlink">
    <!-- Generator: Sketch 48.2 (47327) - http://www.bohemiancoding.com/sketch -->
    <title>Group</title>
    <desc>Created with Sketch.</desc>
    <defs></defs>
    <g id="Mobile-Copy-5" stroke="none" stroke-width="1" fill="none" fill-rule="evenodd" transform="translate(-119.000000, -170.000000)">
        <g id="Group" transform="translate(119.000000, 170.000000)" fill-rule="nonzero">
            <path d="M77.9262582,13.4335783 C72.7527138,13.3159977 65.3451389,12.6105144 57.1145001,9.3182589 C50.7651502,6.73148672 45.8267669,3.4392312 42.4169309,0.617297908 C41.4762864,-0.205765969 40.0653198,-0.205765969 39.1246753,0.617297908 C35.7148393,3.4392312 30.776456,6.73148672 24.4271061,9.3182589 C16.1964673,12.6105144 8.67131186,13.4335783 3.61534804,13.4335783 C2.32196194,13.4335783 1.38131751,14.3742227 1.1461564,15.5500283 C-0.499971354,26.4850198 -3.55706576,59.8778971 18.5480784,86.3335218 C25.0150089,94.0938383 32.3050032,99.6201244 38.6543531,103.382702 C39.9477392,104.205766 41.7114475,104.205766 43.0048336,103.382702 C49.3541835,99.6201244 56.5265973,94.0938383 62.9935278,86.3335218 C85.0986719,59.8778971 82.0415775,26.4850198 80.3954498,15.6676088 C80.2778692,14.3742227 79.2196442,13.5511588 77.9262582,13.4335783" id="Shape" fill="#FFFFFF"></path>
            <path d="M33.6628473,73.7608818 C32.7628473,73.7608818 31.8628473,73.3608818 31.2628473,72.7608818 L18.9628473,60.1608818 C17.6628473,58.8608818 17.6628473,56.6608818 19.0628473,55.3608818 C20.3628473,54.0608818 22.5628473,54.0608818 23.8628473,55.4608818 L33.3628473,65.2608818 L58.0628473,32.3608818 C59.1628473,30.8608818 61.3628473,30.5608818 62.8628473,31.6608818 C64.3628473,32.7608818 64.6628473,34.9608818 63.5628473,36.4608818 L36.4628473,72.4608818 C35.8628473,73.2608818 34.9628473,73.7608818 33.9628473,73.8608818 C33.8628473,73.7608818 33.7628473,73.7608818 33.6628473,73.7608818 Z" id="Shape" fill="#7ED321"></path>
        </g>
    </g>
</svg>